<svg xmlns="http://www.w3.org/2000/svg" width="116.6845" height="79.8314" viewBox="0 0 116.6845 79.8314"><defs><style>.cls-1{fill:#fecc16;}.cls-2{fill:#f1ca39;opacity:0.988;}.cls-10,.cls-2,.cls-3,.cls-4,.cls-5,.cls-6,.cls-7,.cls-8,.cls-9{isolation:isolate;}.cls-3{fill:#383838;opacity:0.957;}.cls-4{fill:#282828;opacity:0.702;}.cls-5{fill:#262212;opacity:0.247;}.cls-6{fill:#040402;opacity:0.102;}.cls-7{fill:#070707;opacity:0.471;}.cls-8,.cls-9{fill:#010101;}.cls-8{opacity:0.882;}.cls-9{opacity:0.694;}</style></defs><g id="Layer_2" data-name="Layer 2"><g id="Layer_1-2" data-name="Layer 1"><g id="Background"><path id="Path_0" data-name="Path 0" class="cls-1" d="M29.1.1657a1.8539,1.8539,0,0,1-.2.7c-.1.2-1.1,1.6-2.1,3-1.1,1.4-2.5,3.3-3.1,4.2s-1.9,2.6-2.8,4a42.6021,42.6021,0,0,0-2.3,3.8,6.758,6.758,0,0,0-.8,2,16.9761,16.9761,0,0,0-.2,3.3c0,1.4.1,3,.1,3.4a10.3777,10.3777,0,0,0,.3,1.2,6.125,6.125,0,0,1,.4.6.5876.5876,0,0,0,.5.2l.3.1a23.8536,23.8536,0,0,1,.2-3.5,16.6606,16.6606,0,0,1,.5-1.9,2.8119,2.8119,0,0,1,.5-1.1,1.4628,1.4628,0,0,0,.3-.5l.8-1.4a8.4225,8.4225,0,0,0,.8-1.4c0-.1.1-.2.2-.4a16.9768,16.9768,0,0,0,1.1-1.6c.5-.8,1.7-2.6,2.6-4,1.1-1.7,2-3,2.5-4a13.19,13.19,0,0,0,.9-1.9c.2-.3.2-.7.2-2.3a9.3276,9.3276,0,0,0-.1-2.2c-.1-.2-.2-.4-.3-.4C29.1-.0343,29.1-.0343,29.1.1657Zm6,6.1a.3674.3674,0,0,0-.1.3,4.4985,4.4985,0,0,0,.2.8,2.5156,2.5156,0,0,1,.1,1.5c-.1.4-.3,1.5-.6,2.5a9.7488,9.7488,0,0,1-1.3,2.9c-.4.7-1.2,1.8-1.6,2.6-.5.7-1.5,2.2-2.2,3.2-1.3,1.8-1.4,1.9-1.5,2.4,0,.2-.1.8-.1,1.3v.8a11.0391,11.0391,0,0,0,1.7,1.5,9.3533,9.3533,0,0,0,1.5.8,3.3422,3.3422,0,0,0,1.2.5c.2,0,0-.2-.1-.3a1.3449,1.3449,0,0,1-.2-.9,2.961,2.961,0,0,1,.2-1,9.2872,9.2872,0,0,1,.5-1c.2-.3.8-.9,1.3-1.5a16.6615,16.6615,0,0,1,1.5-1.4,9.016,9.016,0,0,0,1-.9c.2-.3.7-.9,1-1.4a11.6666,11.6666,0,0,0,.8-1.3,10.3644,10.3644,0,0,0,.4-1.3,10.3,10.3,0,0,0,.2-3v-2.1a36.2183,36.2183,0,0,0-2-3.8c-.2-.3-.5-.6-.6-.8a.9984.9984,0,0,1-.5-.4C35.3,6.1657,35.2,6.1657,35.1,6.2657Z"/><path id="Path_1" data-name="Path 1" class="cls-2" d="M44.1,8.7657v.3a.3491.3491,0,0,0,.1.2c.1,0,.1-.1.1-.2a.2151.2151,0,0,1,.2-.2.2151.2151,0,0,0,.2-.2c0-.1-.2-.1-.2-.1C44.2,8.5657,44.1,8.5657,44.1,8.7657Z"/><path id="Path_2" data-name="Path 2" class="cls-1" d="M44.4,8.7657a.52.52,0,0,0-.2.4c-.1.2,0,.3.2.6a2.6219,2.6219,0,0,1,.5.9c.2.3.3.6.4.7a11.6665,11.6665,0,0,1,.3,2.5c.1,1.3.2,3,.2,3.9a4.75,4.75,0,0,1-.2,2,4.4985,4.4985,0,0,0-.2.8c0,.2-.1.2-.2.3a.7638.7638,0,0,0-.2.5,1.8539,1.8539,0,0,0-.2.7,8.9152,8.9152,0,0,0,.2,1.1,13.3216,13.3216,0,0,0,.5,1.9,2.5748,2.5748,0,0,0,.7,1.4l.6.6c.2.1,1.1.6,2.1,1.1,1.1.5,2.1,1,2.3,1.1a2.3882,2.3882,0,0,0,.9.2,1.2677,1.2677,0,0,1,.6.2c0,.1.3.1.8.1.7,0,.7,0,.7-.2s-.1-.2-.9-.6l-1-.4c-.1,0-.3-.2-.6-.5a11.408,11.408,0,0,1-1.1-1.1c-.3-.5-.5-.8-.6-1,0-.2-.1-.8-.2-1.6-.1-.7-.2-2.1-.4-3s-.3-1.7-.3-1.7c-.1-.1-.1-.3-.1-.6a9.3224,9.3224,0,0,0-.2-1.4c-.1-.5-.2-1.1-.2-1.2a5.4327,5.4327,0,0,1-.2-1.1,6.5524,6.5524,0,0,0-.9-2.4c-.4-.8-.9-1.8-1.1-2.1s-.4-.6-.5-.6-.2-.2-.2-.3c-.1-.2-.2-.5-.4-.6a.9137.9137,0,0,0-.5-.3.3674.3674,0,0,1-.3-.1C44.6,8.7657,44.5,8.7657,44.4,8.7657Z"/><path id="Path_3" data-name="Path 3" class="cls-2" d="M37.9,13.4657a6.7272,6.7272,0,0,1-.1,1.8c0,.1,0,.2.1.2s.1-.5.2-1.3v-1.8C38,11.8657,38,12.0657,37.9,13.4657Zm-19.9,7a9.6282,9.6282,0,0,0,0,2.4,3.9963,3.9963,0,0,0,.1,1.1v-2.4C18,19.2657,18,19.2657,18,20.4657Zm10,1.7c0,.2-.1.5-.1.9,0,.5,0,.8.1.8.1.2.1.2.1-.1v-2C28.1,21.9657,28.1,22.0657,28,22.1657Z"/><path id="Path_4" data-name="Path 4" d="M10.2,22.9657a6.3758,6.3758,0,0,0-1.4.8,3.0643,3.0643,0,0,0-1,.8,2.1774,2.1774,0,0,0-.5.8c-.2.4-.3.7-.2.8a1.27,1.27,0,0,0,.4.7,3.7356,3.7356,0,0,0,.7.6,5.133,5.133,0,0,0,1,.4,8.8,8.8,0,0,0,1.5.5c.5.2,1.3.3,1.7.5.5.1,1.5.3,2.4.5s2.4.4,3.3.5a41.8829,41.8829,0,0,0,5.2.6c1.9.2,4.7.5,6.2.8,1.5.2,4.4.5,6.3.7,2,.2,4.3.4,5.2.5s2.7.3,3.9.5,3.7.4,5.5.5c1.8.2,4.7.5,6.5.6,1.7.2,3.6.4,4.2.5.9.1,1,.1,1.2,0a2.1813,2.1813,0,0,0,.4-.5c.2-.2.2-.3.1-.4a.52.52,0,0,0-.4-.2,4.6617,4.6617,0,0,0-1.6-.2,20.6148,20.6148,0,0,1-2.6-.3c-.7-.1-1.9-.2-2.8-.4-.9-.1-2.7-.3-4.1-.4-1.4-.2-3.9-.4-5.5-.5-1.7-.2-3.8-.4-4.7-.5-.9-.2-3.3-.4-5.3-.6s-4.9-.5-6.5-.7-3.1-.4-3.5-.5a7.77,7.77,0,0,0-1.6-.2,15.1558,15.1558,0,0,0-2.3-.2c-.8-.1-1.4-.2-1.7-.2a18.043,18.043,0,0,0-2-.2c-.9-.2-2.1-.3-2.5-.4a18.1393,18.1393,0,0,1-2.5-.5,13.0648,13.0648,0,0,1-2.7-.7,13.0136,13.0136,0,0,0-1.4-.5c-.2-.1-.5-.2-.6-.4-.2-.2-.2-.3-.2-.4s.2-.2.5-.4a10.54,10.54,0,0,1,1.1-.7,9.9928,9.9928,0,0,0,1.4-.8,6.1306,6.1306,0,0,0,.8-.5v-.3c0-.1-.2-.2-.5-.4a4.7085,4.7085,0,0,0-.5-.2A2.0345,2.0345,0,0,1,10.2,22.9657Zm-1.3,7.7a1.0873,1.0873,0,0,0,.1.5c.1.2.2.6.4,1a4.3283,4.3283,0,0,1,.5,1.2c.1.3.3,1.3.5,2.2.2.8.4,2.1.5,2.7a17.9138,17.9138,0,0,1,.2,2.4c.1.8.2,2.6.2,4a9.7459,9.7459,0,0,1,0,2.8,19.8865,19.8865,0,0,0-2.5.4H6.4l-.1,1.2a30.9526,30.9526,0,0,0,1.6,3.6,8.696,8.696,0,0,0,.8,1.4c.2.2.5.6.7.8s.7.5,1.1.8a8.7567,8.7567,0,0,0,1.2.7,2.3893,2.3893,0,0,1,.7.3,6.8178,6.8178,0,0,1,.5.7,2.3025,2.3025,0,0,1,.3.9,1.8539,1.8539,0,0,0,.2.7,1.2376,1.2376,0,0,0,.2.3c.1,0,.2.2.2,1.1,0,1.1,0,1.1.2,1.4a4.3718,4.3718,0,0,1,.6,1,13.7725,13.7725,0,0,1,.8,2c.3.7.6,1.5.7,1.8.2.3.6,1.1,1.3,2.1a31.747,31.747,0,0,0,2.1,2.7,9.6242,9.6242,0,0,0,1.3,1.4,6.034,6.034,0,0,1,.8.8c.2.2.5.5.5.7a.1959.1959,0,0,0,.2.2,1.0073,1.0073,0,0,1,.3-.1c.1-.1.1-.2.1-.4s-.2-.4-.6-.8c-.4-.3-1.3-1.2-2.1-1.9a10.275,10.275,0,0,1-1.9-2.1c-.3-.5-.5-.9-.6-1.1a6.89,6.89,0,0,1-.3-.8c-.2-.2-.5-.8-.8-1.1a5.58,5.58,0,0,1-1-1.9c-.2-.7-.5-1.2-.5-1.3a.31.31,0,0,1-.1-.2s-.2-.7-.4-1.3-.6-1.7-.8-2.4-.5-1.6-.5-1.6v-.6s1.2-.1,1.6-.2a3.5823,3.5823,0,0,0,1.1-.4c.2-.1.7-.3.9-.4a6.1575,6.1575,0,0,0,1.2-1.2c.5-.6,1.1-1.6,1.6-2.3s.9-1.4,1.1-1.7a5.3647,5.3647,0,0,0,.5-1.1l.2-.6a23.4848,23.4848,0,0,1,2.7-.1h1.7a9.7592,9.7592,0,0,1,.7,1.7c.2.7.5,1.6.7,2.1a8.8648,8.8648,0,0,0,.8,1.7c.2.4.8,1.2,1.1,1.7a10.5718,10.5718,0,0,0,1.4,1.5,7.7042,7.7042,0,0,0,1.3.9l.6.4,2.7-.1a15.2967,15.2967,0,0,0,3.3-1.8c.5-.4,1.2-1.1,1.6-1.5.4-.5,1-1.2,1.4-1.7a21.416,21.416,0,0,1,1.3-1.9,9.9025,9.9025,0,0,0,.9-1.4l.2-.5c2.1,0,3.6,0,4.5-.1,1.6-.1,1.7-.1,1.7.1,0,.1-.2.3-.3.5a1.008,1.008,0,0,0-.3.9c0,.5,0,.5.2.5a.2151.2151,0,0,0,.2-.2c0-.1.2-.4.2-.6.1-.2.2-.5.4-.6a1.2755,1.2755,0,0,0,.5-.7c.1-.2.2-.5.3-.5a.7638.7638,0,0,1,.5-.2,3.5082,3.5082,0,0,0,.8-.5,5.766,5.766,0,0,1,1.4-.8,3.3939,3.3939,0,0,1,1.9-.5,7.304,7.304,0,0,1,2.1,0c.7.1,1.4.2,1.7.2a3.778,3.778,0,0,1,1.1.7l.6.6a5.6065,5.6065,0,0,1,.1,2.2,15.3,15.3,0,0,1-1.1,2.5,17.4887,17.4887,0,0,1-1.7,3c-.4.5-1.7,2-2.8,3.2-2.1,2.1-2.1,2.2-3.1,2.8-.5.3-1.4.8-2,1.1a20.1406,20.1406,0,0,1-2.1,1.1,22.4463,22.4463,0,0,1-2.9,1.1c-.9.3-2,.6-2.3.7a6.2667,6.2667,0,0,1-1.6.2c-.5,0-1.1.1-1.1.2-.1,0-.1.2-.1.4a1.0343,1.0343,0,0,0,.1.4,2.0423,2.0423,0,0,0,.9-.2c.5-.1,1.4-.4,2.1-.5.8-.2,2.2-.7,3.3-1.1a11.7115,11.7115,0,0,0,2.9-1.3c.5-.3,1.6-.9,2.4-1.4a13.1534,13.1534,0,0,0,1.9-1.2c.2-.2,1.1-1.1,2-2.1a33.6686,33.6686,0,0,0,3-3.6,11.5917,11.5917,0,0,0,1.9-3.1c.3-.7.6-1.5.7-1.8a5.0194,5.0194,0,0,0,.2-1.2,3.5949,3.5949,0,0,0-.2-1.1,3.5082,3.5082,0,0,0-.5-.8,6.034,6.034,0,0,0-.8-.8,2.6617,2.6617,0,0,0-1.5-.6,4.9356,4.9356,0,0,0-1.5-.3,3.9326,3.9326,0,0,0-.6-.2c-.1,0,0-.4.4-1.3a6.7977,6.7977,0,0,1,.8-1.7c.2-.3.6-1,.8-1.4a2.5827,2.5827,0,0,1,.7-1.1c.1-.2.2-.3.2-.4a.3491.3491,0,0,1,.1-.2,3.03,3.03,0,0,0,.5-.7c.4-.5.5-.7.9-.9.3-.2.5-.3.5-.4,0-.2-.1-.2-.4-.2a.8437.8437,0,0,0-.7.2,13.115,13.115,0,0,0-1.3,1.7c-.5.8-1.4,2.3-2,3.2-.5.9-1.1,2-1.3,2.4s-.5.8-.6,1a1.8218,1.8218,0,0,1-.8.5,9.2705,9.2705,0,0,0-1.9.7l-1.2,1.1h-8l-.1-2H11.8a6.3208,6.3208,0,0,1-.3-1.6c-.2-1.1-.2-2.7-.3-3.6-.1-.8-.2-1.9-.2-2.2-.1-.4-.2-1-.3-1.5s-.5-1.9-.7-3.2c-.3-1.3-.5-2.5-.6-2.8,0-.2-.2-.6-.2-.9-.2-.4-.2-.5-.5-.5C9,30.4657,8.9,30.5657,8.9,30.6657Z"/><path id="Path_5" data-name="Path 5" class="cls-3" d="M7.4,47.8657h0Zm7,0h0Z"/><path id="Path_6" data-name="Path 6" class="cls-4" d="M26,47.8657h0Z"/><path id="Path_7" data-name="Path 7" class="cls-5" d="M45.1,47.8657h0Z"/><path id="Path_8" data-name="Path 8" class="cls-6" d="M48.9,47.8657h0Z"/><path id="Path_9" data-name="Path 9" class="cls-3" d="M46.1,47.8657h0Z"/><path id="Path_10" data-name="Path 10" d="M43.5,69.5657a12.9873,12.9873,0,0,1-1.9,1.7c-.5.3-1.1.8-1.5,1a6.3758,6.3758,0,0,0-1.4.8,8.0027,8.0027,0,0,1-1.1.5,6.8946,6.8946,0,0,0-1,.4,5.0234,5.0234,0,0,1-1.3.5,16.4775,16.4775,0,0,1-2.1.5c-.8.1-1.6.2-1.9.2l-.6.1c0,.6,0,.8.1.8s.4-.1.8-.2,1.1-.2,1.5-.3a14.906,14.906,0,0,0,1.8-.4,14.906,14.906,0,0,1,1.8-.4c.5-.2,1.2-.5,2-.8a9.1532,9.1532,0,0,0,1.3-.7,5.7643,5.7643,0,0,1,.9-.5,7.0985,7.0985,0,0,0,1.4-1,17.7168,17.7168,0,0,0,1.6-1.4,10.7732,10.7732,0,0,0,1.1-1.1c.1-.2.2-.3.1-.5s-.2-.2-.3-.2C44.7,68.3657,44.3,68.6657,43.5,69.5657Zm-1.5,2.9a1.3382,1.3382,0,0,1-.1.5l-.1.3a40.3109,40.3109,0,0,1,4.6.2,17.8228,17.8228,0,0,1,2.6.4,12.2568,12.2568,0,0,1,1.6.4,3.9917,3.9917,0,0,0,1.3.4,2.3041,2.3041,0,0,1,1.1.4c.2.1.3.2.3.4,0,.1-.2.3-.3.5-.2.2-.4.3-.5.4a4.6353,4.6353,0,0,1-.9.3c-.4.1-1.1.2-1.4.3-.5.1-1.8.3-3.1.5a38,38,0,0,1-4.3.5c-1.1.1-3,.3-4.3.4s-4,.2-5.9.4c-1.9.1-4.6.2-6,.4-1.7.1-3.4.2-5.2.2-1.7,0-3.9-.1-5.7-.2a41.4122,41.4122,0,0,1-4.6-.4c-.8-.1-2.4-.3-3.3-.4-.9-.2-2-.3-2.4-.4-.5-.1-1.4-.3-2.1-.5s-1.4-.4-1.7-.5a2.1859,2.1859,0,0,1-.5-.3.7559.7559,0,0,1,.1-.4,1.3439,1.3439,0,0,1,.8-.5c.3-.1,1.1-.3,1.7-.5s2.4-.5,3.8-.8a35.4722,35.4722,0,0,1,4-.6c.8-.1,2.8-.2,4.6-.2,2.8-.1,3.3-.1,3.4-.2a.3674.3674,0,0,0,.1-.3c0-.2-.1-.2-.2-.2a.7494.7494,0,0,0-.5-.1c-.2,0-1.4.1-2.8.2s-3.3.2-4.2.2c-.9.1-2,.2-2.4.2s-1.3.2-2,.3c-.7.2-1.6.3-1.9.4-.4.1-1.4.4-2.3.6a18.1139,18.1139,0,0,0-2,.6,9.248,9.248,0,0,0-.8.5c-.3.2-.5.4-.5.5a1.5214,1.5214,0,0,0,.4.6c.2.2.5.5.6.5a13.3681,13.3681,0,0,0,1.7.5,30.2845,30.2845,0,0,0,3.2.6c.9.1,2.1.3,2.5.4a12.4819,12.4819,0,0,0,2.1.2c.7,0,2.2.2,3.3.2,1.1.1,2.7.2,3.6.2a18.0056,18.0056,0,0,1,2.1.2,6.5822,6.5822,0,0,0,2.4-.1c1.1-.1,3.3-.2,4.8-.4,1.5-.1,4.3-.2,6.1-.4,1.8-.1,5.1-.3,7.3-.5,2.4-.2,5-.5,6.4-.7,1.3-.2,3-.5,3.6-.6.7-.2,1.6-.4,2-.5a11.2151,11.2151,0,0,1,1.3-.5c.5-.3.6-.4.6-.5a2.0732,2.0732,0,0,0-.2-.6,2.31,2.31,0,0,0-.7-.7,3.6966,3.6966,0,0,0-1.1-.5c-.4-.1-1.1-.3-1.6-.4s-2-.3-3.2-.5-2.6-.4-3-.5a8.7524,8.7524,0,0,0-1.6-.2C42.3,72.2657,42,72.3657,42,72.4657Z"/><path id="Path_11" data-name="Path 11" class="cls-4" d="M42.9,72.8657h.7C42.8,72.7657,42.5,72.7657,42.9,72.8657Z"/><path id="Path_12" data-name="Path 12" class="cls-7" d="M17.1,73.8657h0Z"/><path id="Path_13" data-name="Path 13" d="M41.2,73.8657h-.3c0,.7,0,.7.2.7a17.6712,17.6712,0,0,1,1.9.1l1.7.1c0,.4-.1.5-.4.5-.2,0-.8.2-1.1.2-.5.1-1.3.2-1.9.3s-2,.2-3,.4-2.7.2-3.7.3c-1.1.1-3.9.2-6.3.4-3.3.2-5.4.2-8.4.2h-4c-4.9-.5-6.3-.6-6.4-.6s-.1-.2-.1-.2l.1-.2a3.3243,3.3243,0,0,1,1.4-.2c.7,0,2.1-.2,3.2-.2,1,0,2.7,0,3.9-.1l2.1-.1v-.7c-3.3.1-5,.2-6,.2-1,.1-2.6.2-3.6.3s-2,.2-2.1.2a.7638.7638,0,0,0-.5.2,1.38,1.38,0,0,0-.4.3c-.1.2-.2.3-.2.5s0,.2.1.2a3.3008,3.3008,0,0,0,1.1.2c.5.1,1.7.2,2.5.4.8.1,2.6.3,4,.4a42.6447,42.6447,0,0,0,5,.2,26.494,26.494,0,0,0,3.3-.1c.5-.1,2.6-.2,4.7-.3s4.9-.2,6.2-.3,3.2-.2,4.2-.4c1.1-.1,3-.3,4.3-.5a21.5994,21.5994,0,0,0,2.8-.5,6.8946,6.8946,0,0,0,1-.4c.3-.2.6-.3.7-.4a.1385.1385,0,0,0,0-.2s-.5-.2-1.1-.4-1.4-.4-1.6-.5a7.1152,7.1152,0,0,0-1.6-.1A13.9173,13.9173,0,0,1,41.2,73.8657Z"/><path id="Path_14" data-name="Path 14" class="cls-8" d="M17.8,75.8657h0Z"/><path id="Path_15" data-name="Path 15" class="cls-5" d="M17.4,76.8657h0Z"/><path id="Path_16" data-name="Path 16" class="cls-7" d="M20.9,76.8657h0Z"/><path id="Path_17" data-name="Path 17" class="cls-9" d="M20.1,77.8657h.7C20.1,77.7657,19.8,77.7657,20.1,77.8657Z"/><path id="Path_18" data-name="Path 18" class="cls-7" d="M19.8,78.8657h0Z"/></g><g class="cls-10"><path d="M82.1459,52.5346H80.6586V43.9672q0-1.0166.1245-2.4853h-.0357a7.97,7.97,0,0,1-.3828,1.2383L76,52.5346h-.73l-4.3555-9.7431a7.6424,7.6424,0,0,1-.3828-1.31h-.0356q.071.766.0713,2.5029v8.55H69.1249V39.7631h1.977l3.919,8.9063a11.4354,11.4354,0,0,1,.5879,1.5322h.0532q.3831-1.0518.6147-1.5683l3.9991-8.87h1.87Z"/><path d="M93.6674,52.5346h-1.461V51.0922h-.0356a3.0007,3.0007,0,0,1-2.8145,1.6563q-3.2592,0-3.2592-3.8828V43.4145h1.4516v5.2188q0,2.8857,2.2085,2.8857a2.2359,2.2359,0,0,0,1.7593-.7881,3.0168,3.0168,0,0,0,.69-2.0615V43.4145h1.461Z"/><path d="M105.17,52.5346H103.122l-4.0259-4.3818H99.06v4.3818H97.6V39.0327h1.46v8.5586h.0357l3.83-4.1768h1.915l-4.23,4.3994Z"/><path d="M115.0258,52.5346h-1.461V51.0922h-.0356a3.0007,3.0007,0,0,1-2.8145,1.6563q-3.2592,0-3.2592-3.8828V43.4145h1.4516v5.2188q0,2.8857,2.2085,2.8857a2.2359,2.2359,0,0,0,1.7593-.7881,3.0168,3.0168,0,0,0,.69-2.0615V43.4145h1.461Z"/></g><g class="cls-10"><path d="M77.8173,73.8886a7.4873,7.4873,0,0,1-3.5269.7481,5.6863,5.6863,0,0,1-4.3638-1.7549,6.4712,6.4712,0,0,1-1.6386-4.6045,6.7889,6.7889,0,0,1,1.8432-4.9522,6.26,6.26,0,0,1,4.6758-1.8876,7.4923,7.4923,0,0,1,3.01.5253v1.5948a6.1014,6.1014,0,0,0-3.0279-.7666,4.6466,4.6466,0,0,0-3.5669,1.47,5.5353,5.5353,0,0,0-1.3671,3.9277,5.2689,5.2689,0,0,0,1.2778,3.7188,4.35,4.35,0,0,0,3.3535,1.3847,6.2873,6.2873,0,0,0,3.3306-.8554Z"/><path d="M84.0341,74.6367a4.2279,4.2279,0,0,1-3.2286-1.2783,4.7327,4.7327,0,0,1-1.207-3.3887,4.9286,4.9286,0,0,1,1.2559-3.5889,4.5128,4.5128,0,0,1,3.393-1.292,4.0917,4.0917,0,0,1,3.1841,1.2559,4.98,4.98,0,0,1,1.1446,3.4824,4.9008,4.9008,0,0,1-1.2334,3.4961A4.322,4.322,0,0,1,84.0341,74.6367Zm.1064-8.3184a2.78,2.78,0,0,0-2.2266.957,3.9349,3.9349,0,0,0-.8193,2.6407,3.72,3.72,0,0,0,.8286,2.5566,2.815,2.815,0,0,0,2.2173.9346,2.6709,2.6709,0,0,0,2.1777-.917,3.979,3.979,0,0,0,.7618-2.6094,4.0493,4.0493,0,0,0-.7618-2.6367A2.6591,2.6591,0,0,0,84.1405,66.3183Z"/><path d="M98.6937,74.4228H97.2328v-1.55h-.0356a3.3713,3.3713,0,0,1-3.1348,1.7637,3.4061,3.4061,0,0,1-2.7476-1.2246,5.0241,5.0241,0,0,1-1.0288-3.336,5.4618,5.4618,0,0,1,1.14-3.624,3.7579,3.7579,0,0,1,3.0371-1.3633,2.9239,2.9239,0,0,1,2.7339,1.4785h.0356V60.9209h1.4609Zm-1.4609-4.124V68.9541a2.611,2.611,0,0,0-.73-1.87,2.45,2.45,0,0,0-1.8525-.7656,2.5222,2.5222,0,0,0-2.1021.98,4.2925,4.2925,0,0,0-.7661,2.707,3.8643,3.8643,0,0,0,.7349,2.49,2.4011,2.4011,0,0,0,1.9726.9121,2.4954,2.4954,0,0,0,1.982-.8819A3.2832,3.2832,0,0,0,97.2328,70.2988Z"/><path d="M108.98,70.2275h-6.439a3.41,3.41,0,0,0,.8193,2.3516,2.8223,2.8223,0,0,0,2.1553.8281,4.48,4.48,0,0,0,2.832-1.0147v1.3711a5.29,5.29,0,0,1-3.1792.8731,3.8547,3.8547,0,0,1-3.0371-1.2422,5.088,5.088,0,0,1-1.1045-3.4961,4.986,4.986,0,0,1,1.2071-3.4688,3.869,3.869,0,0,1,2.9965-1.3408,3.4311,3.4311,0,0,1,2.77,1.1582,4.8284,4.8284,0,0,1,.98,3.2149ZM107.4843,68.99a2.9771,2.9771,0,0,0-.61-1.9688,2.08,2.08,0,0,0-1.67-.7031,2.3584,2.3584,0,0,0-1.7549.7393,3.3513,3.3513,0,0,0-.8906,1.9326Z"/><path d="M110.6371,74.0937V72.5253a4.3217,4.3217,0,0,0,2.6274.8819q1.9235,0,1.9239-1.2822a1.1132,1.1132,0,0,0-.1651-.6192,1.6346,1.6346,0,0,0-.4453-.4492,3.4363,3.4363,0,0,0-.6592-.3525q-.3786-.1554-.8149-.3243a10.46,10.46,0,0,1-1.064-.4863,3.2021,3.2021,0,0,1-.7661-.5518,2.0491,2.0491,0,0,1-.4629-.6992,2.4664,2.4664,0,0,1-.1562-.917,2.1794,2.1794,0,0,1,.2939-1.1357,2.6174,2.6174,0,0,1,.7837-.8281,3.641,3.641,0,0,1,1.1182-.503,4.9413,4.9413,0,0,1,1.2959-.17,5.2266,5.2266,0,0,1,2.12.41v1.4785a4.1316,4.1316,0,0,0-2.3159-.6592,2.7016,2.7016,0,0,0-.7393.0938,1.778,1.778,0,0,0-.5654.2627,1.21,1.21,0,0,0-.3652.4052,1.0679,1.0679,0,0,0-.1289.52,1.2506,1.2506,0,0,0,.1289.5967,1.3191,1.3191,0,0,0,.3784.4278,2.86,2.86,0,0,0,.6059.3378q.356.1524.8106.33a11.37,11.37,0,0,1,1.0864.4766,3.7062,3.7062,0,0,1,.8193.5517,2.1635,2.1635,0,0,1,.521.708,2.2876,2.2876,0,0,1,.1827.9532,2.2489,2.2489,0,0,1-.2984,1.1758,2.5553,2.5553,0,0,1-.7973.8281,3.6631,3.6631,0,0,1-1.149.49,5.6891,5.6891,0,0,1-1.3623.16A5.1835,5.1835,0,0,1,110.6371,74.0937Z"/></g></g></g></svg>